PathFileType	4	(X/Y/Z)	C:\Users\italobelli\Desktop\GitHub\PTbot_officialCBL\Personal_Results\FLX21_noisy2.trc
DataRate	CameraRate	NumFrames	NumMarkers	Units	OrigDataRate	OrigDataStartFrame	OrigNumFrames
107.000000	107.000000	42	9	m	107.000000	94	750
Frame#	Time		gu		centelbow		EpL		centpxt8		centijc7		ij		ts		aa		ai
			X1	Y1	Z1	X2	Y2	Z2	X3	Y3	Z3	X4	Y4	Z4	X5	Y5	Z5	X6	Y6	Z6	X7	Y7	Z7	X8	Y8	Z8	X9	Y9	Z9

94	0.86916	-0.058223	0.0050645	0.15512	0.094369	-0.17257	0.22274	0.10268	-0.15126	0.24438	-0.046816	-0.15316	-0.008669	-0.046816	0.031938	-0.008669	0	0	0	-0.14622	0.018416	0.060418	-0.093376	0.036293	0.16457	-0.14758	-0.09185	0.08548
95	0.8785	-0.058101	0.0059922	0.15474	0.097613	-0.16913	0.22327	0.10569	-0.14752	0.24477	-0.046816	-0.15316	-0.008669	-0.046816	0.031938	-0.008669	0	0	0	-0.14644	0.018141	0.060474	-0.093288	0.036938	0.16437	-0.14718	-0.092023	0.086267
96	0.88785	-0.057987	0.0069152	0.15437	0.10076	-0.16567	0.2238	0.10859	-0.14377	0.24515	-0.046816	-0.15316	-0.008669	-0.046816	0.031938	-0.008669	0	0	0	-0.14666	0.017866	0.06053	-0.093203	0.037581	0.16418	-0.14679	-0.092185	0.087053
97	0.8972	-0.057879	0.0078327	0.15399	0.10379	-0.1622	0.22432	0.11139	-0.14001	0.24553	-0.046816	-0.15316	-0.008669	-0.046816	0.031938	-0.008669	0	0	0	-0.14688	0.017592	0.060584	-0.09312	0.038219	0.16398	-0.14641	-0.092337	0.087837
98	0.90654	-0.057778	0.008744	0.15361	0.10672	-0.15871	0.22483	0.11409	-0.13624	0.2459	-0.046816	-0.15316	-0.008669	-0.046816	0.031938	-0.008669	0	0	0	-0.14709	0.017319	0.060636	-0.09304	0.038854	0.16378	-0.14603	-0.092476	0.088618
99	0.91589	-0.057685	0.0096483	0.15324	0.10952	-0.1552	0.22533	0.11666	-0.13246	0.24626	-0.046816	-0.15316	-0.008669	-0.046816	0.031938	-0.008669	0	0	0	-0.1473	0.017047	0.060688	-0.092962	0.039485	0.16358	-0.14567	-0.092604	0.089396
100	0.92523	-0.0576	0.010545	0.15286	0.1122	-0.15168	0.22583	0.11911	-0.12867	0.24661	-0.046816	-0.15316	-0.008669	-0.046816	0.031938	-0.008669	0	0	0	-0.14752	0.016776	0.060738	-0.092888	0.04011	0.16337	-0.14531	-0.092719	0.090169
101	0.93458	-0.057523	0.011433	0.15248	0.11475	-0.14816	0.22631	0.12144	-0.12487	0.24696	-0.046816	-0.15316	-0.008669	-0.046816	0.031938	-0.008669	0	0	0	-0.14772	0.016507	0.060787	-0.092816	0.04073	0.16316	-0.14496	-0.092821	0.090938
102	0.94393	-0.057454	0.012312	0.1521	0.11716	-0.14462	0.22678	0.12363	-0.12108	0.24729	-0.046816	-0.15316	-0.008669	-0.046816	0.031938	-0.008669	0	0	0	-0.14793	0.016239	0.060834	-0.092748	0.041343	0.16294	-0.14463	-0.092909	0.091702
103	0.95327	-0.057394	0.01318	0.15172	0.11942	-0.14108	0.22724	0.12567	-0.11728	0.24761	-0.046816	-0.15316	-0.008669	-0.046816	0.031938	-0.008669	0	0	0	-0.14813	0.015973	0.06088	-0.092682	0.04195	0.16272	-0.1443	-0.092982	0.09246
104	0.96262	-0.057343	0.014038	0.15134	0.12153	-0.13753	0.22768	0.12757	-0.11349	0.24792	-0.046816	-0.15316	-0.008669	-0.046816	0.031938	-0.008669	0	0	0	-0.14833	0.015708	0.060924	-0.092621	0.04255	0.1625	-0.14399	-0.09304	0.093213
105	0.97196	-0.057301	0.014884	0.15097	0.12349	-0.13398	0.22812	0.12932	-0.10969	0.24822	-0.046816	-0.15316	-0.008669	-0.046816	0.031938	-0.008669	0	0	0	-0.14852	0.015446	0.060967	-0.092562	0.043143	0.16228	-0.14369	-0.093083	0.093958
106	0.98131	-0.057268	0.015718	0.15059	0.12528	-0.13042	0.22854	0.13091	-0.10591	0.24851	-0.046816	-0.15316	-0.008669	-0.046816	0.031938	-0.008669	0	0	0	-0.14871	0.015187	0.061007	-0.092508	0.043727	0.16205	-0.1434	-0.093109	0.094696
107	0.99065	-0.057246	0.016539	0.15021	0.1269	-0.12687	0.22895	0.13234	-0.10213	0.24879	-0.046816	-0.15316	-0.008669	-0.046816	0.031938	-0.008669	0	0	0	-0.1489	0.01493	0.061046	-0.092458	0.044303	0.16182	-0.14313	-0.093118	0.095426
108	1	-0.057233	0.017346	0.14984	0.12835	-0.12332	0.22934	0.13359	-0.098365	0.24905	-0.046816	-0.15316	-0.008669	-0.046816	0.031938	-0.008669	0	0	0	-0.14908	0.014675	0.061083	-0.092411	0.044869	0.16159	-0.14287	-0.09311	0.096148
109	1.0093	-0.057242	0.018158	0.14946	0.12968	-0.11971	0.22972	0.13472	-0.094546	0.2493	-0.046816	-0.15316	-0.008669	-0.046816	0.031938	-0.008669	0	0	0	-0.14926	0.014422	0.061119	-0.092372	0.045436	0.16135	-0.14262	-0.093086	0.096871
110	1.0187	-0.057285	0.018992	0.14908	0.13097	-0.11599	0.2301	0.1358	-0.090615	0.24952	-0.046816	-0.15316	-0.008669	-0.046816	0.031938	-0.008669	0	0	0	-0.14945	0.014169	0.061154	-0.092345	0.046012	0.16108	-0.14239	-0.093049	0.097604
111	1.028	-0.057361	0.019849	0.14869	0.13222	-0.11216	0.23048	0.13681	-0.086578	0.24973	-0.046816	-0.15316	-0.008669	-0.046816	0.031938	-0.008669	0	0	0	-0.14964	0.013917	0.061189	-0.092329	0.046597	0.1608	-0.14216	-0.092999	0.098347
112	1.0374	-0.057467	0.020725	0.14829	0.13342	-0.10823	0.23085	0.13776	-0.082439	0.24991	-0.046816	-0.15316	-0.008669	-0.046816	0.031938	-0.008669	0	0	0	-0.14983	0.013665	0.061223	-0.092325	0.04719	0.1605	-0.14195	-0.092936	0.0991
113	1.0467	-0.057604	0.021621	0.14789	0.13457	-0.1042	0.23121	0.13866	-0.078202	0.25007	-0.046816	-0.15316	-0.008669	-0.046816	0.031938	-0.008669	0	0	0	-0.15002	0.013413	0.061256	-0.092331	0.047791	0.16019	-0.14175	-0.092861	0.099861
114	1.0561	-0.05777	0.022533	0.14748	0.13568	-0.10007	0.23157	0.13949	-0.073873	0.25022	-0.046816	-0.15316	-0.008669	-0.046816	0.031938	-0.008669	0	0	0	-0.15022	0.013161	0.06129	-0.092347	0.048399	0.15986	-0.14155	-0.092775	0.10063
115	1.0654	-0.057964	0.023462	0.14707	0.13675	-0.09585	0.23192	0.14027	-0.069456	0.25034	-0.046816	-0.15316	-0.008669	-0.046816	0.031938	-0.008669	0	0	0	-0.15041	0.012909	0.061322	-0.092374	0.049013	0.15951	-0.14136	-0.092677	0.10141
116	1.0748	-0.058185	0.024405	0.14665	0.13777	-0.091546	0.23227	0.14099	-0.064957	0.25044	-0.046816	-0.15316	-0.008669	-0.046816	0.031938	-0.008669	0	0	0	-0.15061	0.012658	0.061354	-0.092411	0.049634	0.15915	-0.14119	-0.092568	0.10219
117	1.0841	-0.058432	0.025361	0.14623	0.13875	-0.08716	0.23261	0.14165	-0.060379	0.25053	-0.046816	-0.15316	-0.008669	-0.046816	0.031938	-0.008669	0	0	0	-0.15081	0.012406	0.061385	-0.092457	0.050259	0.15877	-0.14102	-0.092449	0.10298
118	1.0935	-0.058704	0.026329	0.1458	0.13968	-0.082698	0.23294	0.14225	-0.055729	0.25059	-0.046816	-0.15316	-0.008669	-0.046816	0.031938	-0.008669	0	0	0	-0.15102	0.012154	0.061416	-0.092513	0.05089	0.15838	-0.14085	-0.09232	0.10378
119	1.1028	-0.058999	0.027307	0.14536	0.14056	-0.078165	0.23327	0.1428	-0.05101	0.25064	-0.046816	-0.15316	-0.008669	-0.046816	0.031938	-0.008669	0	0	0	-0.15122	0.011902	0.061446	-0.092579	0.051525	0.15798	-0.1407	-0.092181	0.10458
120	1.1121	-0.059317	0.028294	0.14493	0.1414	-0.073563	0.23359	0.1433	-0.046227	0.25067	-0.046816	-0.15316	-0.008669	-0.046816	0.031938	-0.008669	0	0	0	-0.15142	0.01165	0.061476	-0.092653	0.052163	0.15756	-0.14055	-0.092032	0.10539
121	1.1215	-0.059657	0.029288	0.14449	0.1422	-0.068899	0.2339	0.14373	-0.041385	0.25068	-0.046816	-0.15316	-0.008669	-0.046816	0.031938	-0.008669	0	0	0	-0.15163	0.011398	0.061505	-0.092736	0.052805	0.15714	-0.14041	-0.091875	0.1062
122	1.1308	-0.060017	0.030288	0.14404	0.14295	-0.064177	0.2342	0.14412	-0.03649	0.25068	-0.046816	-0.15316	-0.008669	-0.046816	0.031938	-0.008669	0	0	0	-0.15183	0.011145	0.061533	-0.092828	0.053448	0.1567	-0.14027	-0.09171	0.10701
123	1.1402	-0.060397	0.031293	0.1436	0.14365	-0.059402	0.2345	0.14445	-0.031545	0.25065	-0.046816	-0.15316	-0.008669	-0.046816	0.031938	-0.008669	0	0	0	-0.15203	0.010892	0.061561	-0.092928	0.054094	0.15625	-0.14014	-0.091536	0.10783
124	1.1495	-0.060795	0.032301	0.14314	0.14431	-0.054577	0.23479	0.14472	-0.026557	0.25061	-0.046816	-0.15316	-0.008669	-0.046816	0.031938	-0.008669	0	0	0	-0.15223	0.010639	0.061588	-0.093035	0.054741	0.15579	-0.14001	-0.091354	0.10865
125	1.1589	-0.06121	0.033311	0.14269	0.14493	-0.049709	0.23506	0.14495	-0.021528	0.25055	-0.046816	-0.15316	-0.008669	-0.046816	0.031938	-0.008669	0	0	0	-0.15244	0.010385	0.061614	-0.093151	0.055389	0.15532	-0.13989	-0.091166	0.10947
126	1.1682	-0.061642	0.034321	0.14224	0.1455	-0.0448	0.23533	0.14512	-0.016465	0.25048	-0.046816	-0.15316	-0.008669	-0.046816	0.031938	-0.008669	0	0	0	-0.15264	0.010131	0.06164	-0.093274	0.056036	0.15484	-0.13977	-0.09097	0.1103
127	1.1776	-0.062089	0.035329	0.14178	0.14602	-0.039857	0.23559	0.14524	-0.011371	0.25039	-0.046816	-0.15316	-0.008669	-0.046816	0.031938	-0.008669	0	0	0	-0.15283	0.0098764	0.061665	-0.093405	0.056683	0.15435	-0.13965	-0.090768	0.11112
128	1.1869	-0.06255	0.036336	0.14132	0.14649	-0.034883	0.23584	0.14531	-0.0062531	0.25029	-0.046816	-0.15316	-0.008669	-0.046816	0.031938	-0.008669	0	0	0	-0.15303	0.0096213	0.061689	-0.093542	0.05733	0.15386	-0.13954	-0.09056	0.11195
129	1.1963	-0.063023	0.037338	0.14085	0.14692	-0.029884	0.23608	0.14532	-0.0011143	0.25016	-0.046816	-0.15316	-0.008669	-0.046816	0.031938	-0.008669	0	0	0	-0.15323	0.0093656	0.061712	-0.093686	0.057974	0.15336	-0.13943	-0.090346	0.11277
130	1.2056	-0.063509	0.038335	0.14039	0.14731	-0.024863	0.23631	0.14529	0.00404	0.25003	-0.046816	-0.15316	-0.008669	-0.046816	0.031938	-0.008669	0	0	0	-0.15342	0.0091092	0.061735	-0.093837	0.058616	0.15285	-0.13932	-0.090127	0.11359
131	1.215	-0.064005	0.039325	0.13992	0.14765	-0.019825	0.23653	0.14521	0.009205	0.24988	-0.046816	-0.15316	-0.008669	-0.046816	0.031938	-0.008669	0	0	0	-0.15361	0.0088521	0.061756	-0.093994	0.059256	0.15233	-0.13922	-0.089904	0.11442
132	1.2243	-0.064511	0.040307	0.13946	0.14794	-0.014776	0.23674	0.14508	0.014376	0.24971	-0.046816	-0.15316	-0.008669	-0.046816	0.031938	-0.008669	0	0	0	-0.15379	0.0085943	0.061778	-0.094157	0.059892	0.15181	-0.13911	-0.089676	0.11524
133	1.2336	-0.065026	0.04128	0.13899	0.14818	-0.0097194	0.23694	0.1449	0.019548	0.24953	-0.046816	-0.15316	-0.008669	-0.046816	0.031938	-0.008669	0	0	0	-0.15398	0.0083358	0.061798	-0.094325	0.060523	0.15129	-0.13901	-0.089443	0.11605
134	1.243	-0.065549	0.042241	0.13852	0.14838	-0.00466	0.23712	0.14468	0.024717	0.24934	-0.046816	-0.15316	-0.008669	-0.046816	0.031938	-0.008669	0	0	0	-0.15416	0.0080764	0.061817	-0.0945	0.061151	0.15076	-0.1389	-0.089208	0.11687
135	1.2523	-0.066078	0.04319	0.13805	0.14854	0.00039752	0.2373	0.1444	0.029877	0.24913	-0.046816	-0.15316	-0.008669	-0.046816	0.031938	-0.008669	0	0	0	-0.15433	0.0078161	0.061836	-0.094679	0.061773	0.15023	-0.1388	-0.088969	0.11768
